<svg width="324" height="131" viewBox="0 0 324 131" fill="none" xmlns="http://www.w3.org/2000/svg">
<path d="M117.642 113.16C118.15 113.16 118.697 113.212 119.283 113.316C119.882 113.407 120.233 113.459 120.337 113.472L120.298 114.935C119.153 114.727 118.267 114.623 117.642 114.623C116.757 114.623 116.119 114.805 115.729 115.169C115.338 115.533 115.143 116.137 115.143 116.982V122.559C115.143 123.404 115.332 124.009 115.709 124.373C116.1 124.724 116.744 124.899 117.642 124.899C118.267 124.899 119.153 124.795 120.298 124.587L120.337 126.089C120.233 126.102 119.882 126.154 119.283 126.245C118.697 126.349 118.15 126.401 117.642 126.401C116.145 126.401 115.078 126.082 114.44 125.445C113.802 124.808 113.483 123.814 113.483 122.462V117.099C113.483 115.747 113.802 114.753 114.44 114.116C115.078 113.479 116.145 113.16 117.642 113.16Z" fill="white"/>
<path d="M126.246 113.16C127.782 113.16 128.922 113.472 129.664 114.096C130.419 114.707 130.796 115.585 130.796 116.729V117.197C130.796 118.419 130.432 119.361 129.703 120.024C128.974 120.687 127.874 121.019 126.402 121.019C125.817 121.019 125.192 120.967 124.528 120.863V126.167H122.868V113.258C123.974 113.193 125.101 113.16 126.246 113.16ZM126.207 114.564C125.634 114.564 125.075 114.577 124.528 114.603V119.439C125.309 119.543 125.908 119.595 126.324 119.595C128.199 119.595 129.136 118.77 129.136 117.119V116.787C129.136 116.046 128.902 115.494 128.433 115.13C127.965 114.753 127.223 114.564 126.207 114.564Z" fill="white"/>
<path d="M135.558 116.417C136.678 116.417 137.492 116.67 137.999 117.177C138.52 117.671 138.78 118.464 138.78 119.556V126.167H137.199V124.646C136.444 125.816 135.591 126.401 134.641 126.401C133.885 126.401 133.28 126.141 132.824 125.621C132.382 125.101 132.16 124.392 132.16 123.495V122.949C132.16 122.169 132.427 121.526 132.961 121.019C133.495 120.499 134.211 120.239 135.109 120.239C135.604 120.239 136.274 120.323 137.121 120.492V119.42C137.121 118.861 136.99 118.458 136.73 118.211C136.483 117.964 136.092 117.84 135.558 117.84C134.933 117.84 134.055 117.938 132.922 118.133V116.709C134.146 116.514 135.025 116.417 135.558 116.417ZM135.519 121.526C134.972 121.526 134.556 121.669 134.269 121.955C133.983 122.241 133.84 122.644 133.84 123.164V123.378C133.84 123.859 133.951 124.236 134.172 124.509C134.393 124.782 134.673 124.919 135.012 124.919C135.363 124.919 135.721 124.769 136.086 124.47C136.463 124.158 136.808 123.723 137.121 123.164V121.662C136.626 121.571 136.092 121.526 135.519 121.526Z" fill="white"/>
<path d="M144.331 116.417C145.45 116.417 146.264 116.67 146.772 117.177C147.292 117.671 147.553 118.464 147.553 119.556V126.167H145.971V124.646C145.216 125.816 144.363 126.401 143.413 126.401C142.658 126.401 142.052 126.141 141.597 125.621C141.154 125.101 140.933 124.392 140.933 123.495V122.949C140.933 122.169 141.2 121.526 141.733 121.019C142.267 120.499 142.983 120.239 143.882 120.239C144.376 120.239 145.047 120.323 145.893 120.492V119.42C145.893 118.861 145.763 118.458 145.502 118.211C145.255 117.964 144.864 117.84 144.331 117.84C143.706 117.84 142.827 117.938 141.694 118.133V116.709C142.918 116.514 143.797 116.417 144.331 116.417ZM144.292 121.526C143.745 121.526 143.328 121.669 143.042 121.955C142.755 122.241 142.612 122.644 142.612 123.164V123.378C142.612 123.859 142.723 124.236 142.944 124.509C143.166 124.782 143.445 124.919 143.784 124.919C144.135 124.919 144.493 124.769 144.858 124.47C145.236 124.158 145.581 123.723 145.893 123.164V121.662C145.398 121.571 144.864 121.526 144.292 121.526Z" fill="white"/>
<path d="M153.494 113.16C154.197 113.16 155.114 113.264 156.247 113.472L156.208 114.935C155.141 114.727 154.236 114.623 153.494 114.623C152.739 114.623 152.192 114.772 151.853 115.071C151.528 115.37 151.365 115.825 151.365 116.436V116.943C151.365 117.268 151.404 117.528 151.482 117.723C151.573 117.905 151.73 118.068 151.951 118.211C152.172 118.341 152.504 118.477 152.947 118.62L154.763 119.225C155.635 119.524 156.247 119.92 156.599 120.414C156.963 120.908 157.145 121.63 157.145 122.579V122.949C157.145 124.106 156.807 124.971 156.13 125.543C155.466 126.115 154.372 126.401 152.849 126.401C152.107 126.401 151.157 126.271 149.998 126.011L150.037 124.509C151.118 124.769 152.042 124.899 152.81 124.899C153.787 124.899 154.477 124.756 154.88 124.47C155.284 124.171 155.486 123.71 155.486 123.086V122.442C155.486 121.987 155.381 121.643 155.173 121.409C154.978 121.162 154.626 120.954 154.119 120.785L152.107 120.122C151.209 119.823 150.584 119.439 150.232 118.971C149.881 118.49 149.705 117.769 149.705 116.807V116.592C149.705 115.461 150.005 114.61 150.603 114.038C151.215 113.453 152.179 113.16 153.494 113.16Z" fill="white"/>
<path d="M169.689 113.16C171.225 113.16 172.364 113.472 173.106 114.096C173.861 114.707 174.239 115.585 174.239 116.729V117.197C174.239 118.419 173.874 119.361 173.145 120.024C172.416 120.687 171.316 121.019 169.845 121.019C169.259 121.019 168.634 120.967 167.97 120.863V126.167H166.31V113.258C167.417 113.193 168.543 113.16 169.689 113.16ZM169.649 114.564C169.077 114.564 168.517 114.577 167.97 114.603V119.439C168.751 119.543 169.35 119.595 169.767 119.595C171.641 119.595 172.579 118.77 172.579 117.119V116.787C172.579 116.046 172.344 115.494 171.876 115.13C171.407 114.753 170.665 114.564 169.649 114.564Z" fill="white"/>
<path d="M177.944 113.394V124.704H183.021V126.167H176.284V113.394H177.944Z" fill="white"/>
<path d="M189.84 113.394L193.765 126.167H191.968L191.129 123.203H186.422L185.583 126.167H183.884L187.789 113.394H189.84ZM188.785 114.915L186.832 121.721H190.719L188.785 114.915Z" fill="white"/>
<path d="M202.526 113.394V114.896H198.816V126.167H197.156V114.896H193.446V113.394H202.526Z" fill="white"/>
<path d="M211.322 113.394V114.896H206.244V118.932H210.072V120.414H206.244V126.167H204.584V113.394H211.322Z" fill="white"/>
<path d="M217.135 113.16C218.593 113.16 219.667 113.524 220.357 114.252C221.047 114.98 221.392 116.014 221.392 117.353V122.208C221.392 123.547 221.047 124.581 220.357 125.309C219.667 126.037 218.593 126.401 217.135 126.401C215.677 126.401 214.603 126.037 213.913 125.309C213.223 124.581 212.878 123.547 212.878 122.208V117.353C212.878 116.014 213.223 114.98 213.913 114.252C214.603 113.524 215.677 113.16 217.135 113.16ZM217.135 114.623C216.276 114.623 215.625 114.837 215.182 115.266C214.752 115.695 214.538 116.326 214.538 117.158V122.384C214.538 123.216 214.752 123.853 215.182 124.295C215.625 124.724 216.276 124.938 217.135 124.938C217.994 124.938 218.639 124.724 219.068 124.295C219.511 123.853 219.732 123.216 219.732 122.384V117.177C219.732 116.345 219.511 115.715 219.068 115.286C218.639 114.844 217.994 114.623 217.135 114.623Z" fill="white"/>
<path d="M227.625 113.16C229.161 113.16 230.294 113.459 231.023 114.057C231.752 114.655 232.116 115.494 232.116 116.573V117.06C232.116 117.814 231.908 118.484 231.491 119.069C231.075 119.641 230.476 120.044 229.695 120.278L233.015 126.167H231.159L228.054 120.629C227.95 120.642 227.742 120.648 227.43 120.648C226.909 120.648 226.395 120.629 225.887 120.59V126.167H224.227V113.238C225.685 113.186 226.818 113.16 227.625 113.16ZM227.586 114.564C227.156 114.564 226.59 114.577 225.887 114.603V119.205C226.59 119.27 227.176 119.303 227.644 119.303C229.519 119.303 230.456 118.542 230.456 117.021V116.631C230.456 115.929 230.229 115.409 229.773 115.071C229.317 114.733 228.588 114.564 227.586 114.564Z" fill="white"/>
<path d="M243.971 126.167L243.873 115.676L241.159 124.841H239.108L236.394 115.676L236.296 126.167H234.675L234.792 113.394H237.253L240.143 123.359L243.014 113.394H245.474L245.591 126.167H243.971Z" fill="white"/>
<path fill-rule="evenodd" clip-rule="evenodd" d="M292.006 63.3333V87.8889H316.235V63.3333H292.006ZM284.773 87.8889V63.3333C284.773 59.3446 288.012 56.1111 292.006 56.1111H316.235C320.23 56.1111 323.468 59.3446 323.468 63.3333V87.8889C323.468 91.8776 320.23 95.1111 316.235 95.1111H292.006C288.012 95.1111 284.773 91.8776 284.773 87.8889Z" fill="white"/>
<path d="M237.038 56.4722H229.083L251.504 95.1111H257.651L280.434 56.4722H272.478L254.397 86.8055L237.038 56.4722Z" fill="white"/>
<path fill-rule="evenodd" clip-rule="evenodd" d="M183.517 63.3334C183.517 58.7464 187.241 55.0278 191.835 55.0278H216.426C221.019 55.0278 224.743 58.7464 224.743 63.3334V96.1945H215.341V83.1945H192.558V96.1945H183.517V63.3334ZM192.196 63.2501C192.196 62.6978 192.644 62.2501 193.196 62.2501H214.702C215.255 62.2501 215.702 62.6978 215.702 63.2501V74.9723C215.702 75.5246 215.255 75.9723 214.702 75.9723H193.196C192.644 75.9723 192.196 75.5246 192.196 74.9723V63.2501Z" fill="#3DB3E5"/>
<path fill-rule="evenodd" clip-rule="evenodd" d="M137.59 55.0278H170.86C175.454 55.0278 179.177 58.7464 179.177 63.3334V87.5278C179.177 92.1149 175.454 95.8334 170.86 95.8334H137.59V55.0278ZM147.992 64.4167C147.44 64.4167 146.992 64.8644 146.992 65.4167V85.8056C146.992 86.3579 147.44 86.8056 147.992 86.8056H169.137C169.689 86.8056 170.137 86.3579 170.137 85.8056V65.4167C170.137 64.8644 169.689 64.4167 169.137 64.4167H147.992Z" fill="#3DB3E5"/>
<path fill-rule="evenodd" clip-rule="evenodd" d="M101.065 63.3333V87.8889H125.294V63.3333H101.065ZM93.8325 87.8889V63.3333C93.8325 59.3446 97.0707 56.1111 101.065 56.1111H125.294C129.289 56.1111 132.527 59.3446 132.527 63.3333V87.8889C132.527 91.8776 129.289 95.1111 125.294 95.1111H101.065C97.0707 95.1111 93.8325 91.8776 93.8325 87.8889Z" fill="white"/>
<path fill-rule="evenodd" clip-rule="evenodd" d="M227.828 55.75H237.458L254.41 85.3722L272.067 55.75H281.699L258.065 95.8333H251.087L227.828 55.75ZM230.338 57.1944L251.921 94.3889H257.238L279.169 57.1944H272.89L254.384 88.239L236.619 57.1944H230.338Z" fill="white"/>
<path d="M48.9715 95.1111H44.6506C43.8517 95.1111 43.2041 94.4644 43.2041 93.6666V57.5555C43.2041 56.7578 43.8517 56.1111 44.6506 56.1111H49.7503C50.1847 56.1111 50.5961 56.306 50.8708 56.6421L64.902 73.8055L78.5712 56.656C78.8457 56.3117 79.2623 56.1111 79.703 56.1111H85.5149C86.3138 56.1111 86.9615 56.7578 86.9615 57.5555V93.6666C86.9615 94.4644 86.3138 95.1111 85.5149 95.1111H81.537C80.7381 95.1111 80.0905 94.4644 80.0905 93.6666V66.2222L64.902 84.2777L50.0751 66.9444L50.4179 93.6481C50.4283 94.453 49.7777 95.1111 48.9715 95.1111Z" fill="white"/>
<path fill-rule="evenodd" clip-rule="evenodd" d="M49.3263 64.957L64.8973 83.1604L80.8137 64.2395V93.6666C80.8137 94.0655 81.1375 94.3889 81.537 94.3889H85.5149C85.9144 94.3889 86.2382 94.0655 86.2382 93.6666V57.5555C86.2382 57.1567 85.9144 56.8333 85.5149 56.8333H79.703C79.4827 56.8333 79.2744 56.9336 79.1371 57.1058L64.9091 74.9563L50.3105 57.0988C50.1732 56.9308 49.9675 56.8333 49.7503 56.8333H44.6506C44.2512 56.8333 43.9274 57.1567 43.9274 57.5555V93.6666C43.9274 94.0655 44.2512 94.3889 44.6506 94.3889H48.9715C49.3746 94.3889 49.6999 94.0598 49.6947 93.6574L49.3263 64.957ZM64.902 84.2777L50.0751 66.9444L50.4179 93.6481C50.4283 94.453 49.7777 95.1111 48.9715 95.1111H44.6506C43.8517 95.1111 43.2041 94.4644 43.2041 93.6666V57.5555C43.2041 56.7578 43.8517 56.1111 44.6506 56.1111H49.7503C50.1847 56.1111 50.5961 56.306 50.8708 56.6421L64.902 73.8055L78.5712 56.656C78.8457 56.3117 79.2623 56.1111 79.703 56.1111H85.5149C86.3138 56.1111 86.9615 56.7578 86.9615 57.5555V93.6666C86.9615 94.4644 86.3138 95.1111 85.5149 95.1111H81.537C80.7381 95.1111 80.0905 94.4644 80.0905 93.6666V66.2222L64.902 84.2777Z" fill="white"/>
<path fill-rule="evenodd" clip-rule="evenodd" d="M39.9495 48.5277C37.9244 45.9277 34.0429 44.7962 32.3553 44.5555H20.4214C20.2827 44.5462 20.1236 44.5374 19.9465 44.5275C17.816 44.409 13.0726 44.1452 9.57252 41.3055C3.78642 36.611 0.531738 31.2287 0.531738 23.611C0.531738 18.1944 2.14313 13.3353 5.59457 9.88881C9.57251 5.91658 13.5505 3.02769 23.3145 3.74992C32.9441 4.46221 39.9495 13.4999 39.9495 18.1944V48.5277ZM31.2704 35.8888V18.6144C31.2294 18.5095 31.1578 18.3451 31.0383 18.1204C30.6704 17.4282 30.0327 16.5276 29.1223 15.6232C27.2487 13.7622 24.9345 12.5602 22.6733 12.3929C18.7314 12.1013 16.7403 12.594 15.6229 13.0589C14.486 13.532 13.4598 14.2914 11.7317 16.0171C10.3107 17.436 9.21088 19.8536 9.21088 23.611C9.21088 28.0738 10.8224 31.1528 15.0455 34.5792C15.4678 34.9217 16.2429 35.2941 17.4878 35.5495C18.5197 35.7613 19.3581 35.8103 20.308 35.8657C20.4355 35.8732 20.565 35.8807 20.6973 35.8888H31.2704Z" fill="white"/>
<path fill-rule="evenodd" clip-rule="evenodd" d="M49.3518 25.0556H58.3926C63.5854 25.0556 67.795 20.852 67.795 15.6667V15.4861C67.795 10.4005 63.6663 6.27778 58.5734 6.27778C53.4804 6.27778 49.3518 10.4005 49.3518 15.4861V25.0556ZM50.7983 23.6111V15.4861C50.7983 11.1982 54.2793 7.72222 58.5734 7.72222C62.8674 7.72222 66.3484 11.1982 66.3484 15.4861V15.6667C66.3484 20.0543 62.7865 23.6111 58.3926 23.6111H50.7983ZM50.3312 29.75L50.2268 29.7653C49.2946 29.9018 48.4563 30.2974 47.4476 30.9604C46.9557 31.2836 46.395 31.69 45.7355 32.1926V11.6944C45.7355 10.3949 46.7007 8.09325 48.7004 5.97854C50.6505 3.91642 53.3721 2.26743 56.5514 2.02601C60.0627 1.75939 62.4007 2.1688 64.1705 2.92471C65.9457 3.68296 67.2816 4.84353 68.7361 6.33456C71.0014 8.65663 72.1345 12.0071 72.1345 15.924C72.1345 18.7562 71.7874 20.6033 71.0245 22.1389C70.256 23.6859 68.9931 25.0656 66.8684 26.8352C65.7931 27.7308 64.062 28.4755 62.3357 29.0001C60.5975 29.5283 59.1499 29.75 58.7542 29.75H50.3312ZM44.2889 11.6944C44.2889 8.06903 49.1974 1.13581 56.4417 0.585727C63.7872 0.0279665 66.7797 2.25899 69.7723 5.32666C72.3688 7.98831 73.5811 11.7409 73.5811 15.924C73.5811 21.807 72.1478 24.319 67.795 27.9444C65.1936 30.1111 59.9751 31.1944 58.7542 31.1944H50.4367C49.3533 31.3531 48.2755 32.0299 45.7355 34.0202C45.299 34.3622 44.8193 34.743 44.2889 35.1667V11.6944Z" fill="white"/>
</svg>
