<?xml version="1.0" encoding="UTF-8" standalone="no"?>
<svg
   version="1.1"
   id="Layer_1"
   x="0px"
   y="0px"
   width="1157.0925"
   viewBox="0 0 1157.0925 442.18225"
   enable-background="new 0 0 1173 461"
   xml:space="preserve"
   sodipodi:docname="modavo.svg"
   height="442.18225"
   inkscape:version="1.1.2 (0a00cf5339, 2022-02-04, custom)"
   xmlns:inkscape="http://www.inkscape.org/namespaces/inkscape"
   xmlns:sodipodi="http://sodipodi.sourceforge.net/DTD/sodipodi-0.dtd"
   xmlns="http://www.w3.org/2000/svg"
   xmlns:svg="http://www.w3.org/2000/svg"><defs
   id="defs87" /><sodipodi:namedview
   id="namedview85"
   pagecolor="#505050"
   bordercolor="#eeeeee"
   borderopacity="1"
   inkscape:pageshadow="0"
   inkscape:pageopacity="0"
   inkscape:pagecheckerboard="0"
   showgrid="false"
   inkscape:zoom="0.51023018"
   inkscape:cx="331.22306"
   inkscape:cy="187.17043"
   inkscape:window-width="1366"
   inkscape:window-height="748"
   inkscape:window-x="0"
   inkscape:window-y="20"
   inkscape:window-maximized="1"
   inkscape:current-layer="Layer_1" />

<path
   fill="#050505"
   opacity="1"
   stroke="none"
   d="m 103.91036,18.512159 c 11.98229,6.075143 21.70895,14.222765 29.06208,25.072801 6.15998,9.089432 10.06,18.570831 9.83145,30.142815 -0.60493,30.627995 -0.20507,61.275825 -0.20507,91.915755 -2e-5,1.63356 1e-5,3.26712 1e-5,5.71222 -1.76028,-1.1051 -2.96159,-1.77511 -4.07356,-2.57008 -15.08125,-10.78186 -31.67301,-15.96922 -50.286735,-13.44425 -15.031448,2.03901 -29.949127,2.53655 -44.022026,-4.31147 C 15.796513,137.20049 2.2594618,114.10355 0.15219978,82.760261 -3.4997542,28.441283 59.356165,-3.9239163 103.91036,18.512159 M 31.337588,79.471397 c -0.126114,3.159736 -0.379513,6.320388 -0.356846,9.479057 0.112755,15.714326 7.857048,27.546386 22.689358,32.319266 19.926147,6.41205 40.400932,7.19454 61.21595,3.73645 0.12647,-1.13313 0.29304,-1.93342 0.29377,-2.73388 0.0157,-17.32444 0.027,-34.648931 -0.0151,-51.97328 -0.003,-1.296363 -0.20126,-2.675003 -0.66887,-3.875076 C 107.4834,48.426871 85.318415,36.391933 66.349116,40.748138 46.25873,45.361789 35.182471,58.677291 31.337588,79.471397 Z"
   id="path4" />
<path
   fill="#040404"
   opacity="1"
   stroke="none"
   d="m 248.28206,236.56919 c 10.55005,-12.46653 20.79056,-24.73556 31.34134,-36.73167 1.59842,-1.81738 4.59405,-3.21337 7.02224,-3.34448 7.78949,-0.42066 15.616,-0.15641 23.82132,-0.15641 0,46.36292 0,92.38814 0,138.76909 -8.37793,0 -16.61496,0 -25.48391,0 0,-33.05844 0,-66.22159 0,-99.38473 -0.41846,-0.18053 -0.83692,-0.36107 -1.25537,-0.5416 -17.29758,20.28262 -34.59516,40.56525 -52.19602,61.20349 -17.55995,-20.51635 -34.96805,-40.85528 -53.34714,-62.3287 0,34.65469 0,67.70346 0,101.07754 -8.79185,0 -17.15676,0 -25.84881,0 0,-46.1138 0,-92.01788 0,-138.72607 8.97711,0 18.0608,-0.1214 27.13348,0.13998 1.26,0.0363 2.63217,1.8182 3.67142,3.03249 15.58533,18.21066 31.12283,36.46225 46.67592,54.70051 0.42332,0.49643 0.89496,0.95166 1.80629,1.9144 5.56856,-6.54562 11.00969,-12.94153 16.65924,-19.62384 z"
   id="path6" />
<path
   fill="#070707"
   opacity="1"
   stroke="none"
   d="m 471.67805,318.85084 c -5.32202,10.97015 -13.89175,16.51886 -25.60415,16.58493 -28.4968,0.16086 -56.9953,-0.006 -85.4928,0.0732 -16.44855,0.0459 -28.159,-13.72183 -27.78699,-28.32989 0.6998,-27.47998 0.19199,-54.99045 0.2056,-82.48825 0.008,-16.82996 10.65955,-28.11701 27.53272,-28.27761 28.49508,-0.27121 56.99673,-0.28155 85.49151,0.007 16.77359,0.16981 27.55869,11.61009 27.56989,28.31259 0.0184,27.4978 0.0716,54.99591 -0.0724,82.49298 -0.0197,3.76266 -1.08823,7.51986 -1.84339,11.62509 M 358.88838,224.10952 c -0.0287,26.99422 0.0116,53.98891 -0.16217,80.98219 -0.0255,3.9552 1.56293,4.66492 5.05527,4.65003 26.16159,-0.11163 52.32443,-0.15024 78.48523,0.0308 4.17737,0.0289 5.35232,-1.18887 5.32449,-5.32956 -0.17233,-25.66098 -0.1633,-51.32413 -0.007,-76.98532 0.0244,-4.01807 -0.93021,-5.46591 -5.23978,-5.43394 -26.16058,0.19397 -52.32336,0.078 -78.48526,0.14213 -1.55234,0.004 -3.103,0.67183 -4.9704,1.94368 z"
   id="path8" />
<path
   fill="#050505"
   opacity="1"
   stroke="none"
   d="m 1124.0369,196.33297 c 6.3396,0.96275 12.7353,0.73741 17.9081,3.14235 9.9282,4.61574 15.0442,13.04784 14.9841,24.45714 -0.1463,27.81987 -0.514,55.6523 0.1565,83.45671 0.3168,13.12994 -10.424,27.97555 -27.0984,28.0394 -28.9863,0.11096 -57.9758,0.25699 -86.9592,-0.0595 -15.8194,-0.17273 -26.8351,-11.71921 -26.9048,-27.52151 -0.1236,-27.98667 -0.1309,-55.9748 0.01,-83.96134 0.08,-16.34248 11.5731,-27.44019 28.4485,-27.52005 26.3206,-0.12459 52.6423,-0.0331 79.4599,-0.0332 m -42.4871,25.77371 c -11.4955,10e-5 -22.9946,0.1679 -34.4843,-0.0903 -4.0433,-0.0909 -5.0202,1.21867 -4.9951,5.12298 0.1668,25.82199 0.1939,51.64646 -0.018,77.46778 -0.036,4.41619 1.5694,5.18231 5.489,5.16082 25.9889,-0.14248 51.9798,-0.1795 77.9677,0.03 4.3532,0.0351 5.1916,-1.436 5.1669,-5.41363 -0.1589,-25.65546 -0.076,-51.31238 -0.093,-76.96883 -9e-4,-1.60791 -0.1677,-3.21571 -0.2844,-5.30878 -16.1872,0 -31.9684,0 -48.7495,3e-5 z"
   id="path10" />
<path
   fill="#050505"
   opacity="1"
   stroke="none"
   d="m 894.06831,277.26481 c 5.20124,8.85626 10.21308,17.39847 15.66877,26.69711 5.89373,-10.07516 11.33789,-19.36001 16.76117,-28.65701 14.74755,-25.28155 29.45483,-50.58681 44.3117,-75.80394 0.83496,-1.41714 2.8454,-2.97487 4.35553,-3.02383 8.80695,-0.28556 17.62784,-0.13991 27.37152,-0.13991 -1.0534,1.9848 -1.7365,3.39151 -2.5235,4.7373 -25.18853,43.06598 -50.44665,86.09153 -75.48645,129.24375 -2.34137,4.03506 -4.93273,5.59445 -9.46997,5.22384 -5.61651,-0.45871 -12.31787,1.47699 -16.63086,-0.98486 -4.29547,-2.45184 -6.31524,-9.00812 -9.15972,-13.86606 -23.52595,-40.17959 -47.01252,-80.38226 -70.50409,-120.58195 -0.56727,-0.9706 -1.05494,-1.98766 -1.98487,-3.75153 9.85034,0 19.06403,-0.11136 28.26807,0.13469 1.21081,0.0324 2.75409,1.66817 3.50098,2.9389 15.16705,25.80674 30.24041,51.66858 45.52172,77.8335 z"
   id="path12" />
<path
   fill="#3cb0e2"
   opacity="1"
   stroke="none"
   d="m 655.13033,331.24851 c 0,-35.13174 0.48706,-69.78631 -0.1825,-104.4185 -0.40277,-20.83133 14.42938,-33.86023 33.56024,-33.38743 27.13318,0.67057 54.29541,0.15811 81.44519,0.17427 19.38489,0.0115 31.93671,12.49757 31.94446,31.78176 0.0144,35.64452 0.004,71.28905 0.004,106.93355 0,1.6565 6e-5,3.31299 6e-5,5.43521 -10.794,0 -21.31579,0 -32.3349,0 0,-14.9418 0,-29.87091 0,-45.28121 -27.65423,0 -54.8225,0 -82.45056,0 0,14.96285 0,29.89382 0,45.28427 -10.65515,0 -20.87237,0 -31.98639,0 0,-1.88581 0,-3.96055 7e-5,-6.52192 m 140.78884,-40.39059 c -6e-5,-21.66098 -0.19641,-43.32434 0.0678,-64.98213 0.18066,-14.8021 -10.8086,-26.47238 -25.76617,-26.14472 -27.97925,0.61293 -55.98163,0.15177 -83.97419,0.21434 -2.802,0.006 -5.7124,0.15003 -8.38501,0.89905 -11.02124,3.08882 -16.81671,12.21704 -16.83709,26.39569 -0.0479,33.32459 -0.0201,66.64929 -0.002,99.97394 8e-4,1.58612 0.19959,3.17212 0.30073,4.67697 6.81768,0 13.04773,0 19.65924,0 0,-2.21213 -7e-5,-4.0199 0,-5.82763 1.8e-4,-11.99689 0.0479,-23.99408 -0.0359,-35.99039 -0.0189,-2.69928 0.35132,-4.43912 3.68805,-4.43161 29.15893,0.0659 58.31811,0.0691 87.47692,-0.0139 3.33313,-0.009 3.74964,1.63928 3.73023,4.36878 -0.0864,12.16287 -0.0371,24.32672 -0.0369,36.4902 7e-5,1.76651 0,3.53305 0,5.81036 5.47828,0 10.28589,-0.21411 15.06428,0.0674 3.86773,0.22778 5.2326,-0.95353 5.14282,-5.01755 -0.26129,-11.82449 -0.0926,-23.65845 -0.0925,-36.48871 z"
   id="path14" />
<path
   fill="#3db0e0"
   opacity="1"
   stroke="none"
   d="m 579.05452,193.61051 c 12.13928,0.22304 23.86847,-0.37873 35.3952,0.87702 14.47925,1.57741 24.51538,14.09097 24.54016,28.75963 0.0482,28.48283 0.0612,56.96595 -0.005,85.44874 -0.037,15.99014 -13.12982,29.44092 -29.01995,29.49738 -37.81019,0.13437 -75.62122,0.0461 -113.43189,0.0305 -1.12769,-4.9e-4 -2.25528,-0.19434 -3.79065,-0.33551 -0.0992,-1.95591 -0.26849,-3.7446 -0.26907,-5.53336 -0.0147,-44.30679 0.0454,-88.61377 -0.10007,-132.92009 -0.0145,-4.41779 0.9364,-5.9863 5.73026,-5.94248 26.81503,0.24512 53.63345,0.11797 80.95071,0.11815 m 27.31982,138.6821 c 16.70838,1.05097 27.19361,-12.93362 26.81177,-26.74139 -0.73682,-26.64404 -0.21045,-53.32291 -0.21686,-79.98735 -0.004,-15.92501 -9.56353,-25.62442 -25.38678,-25.63939 -34.49713,-0.0326 -68.9942,-0.0142 -103.49133,0.003 -1.60214,8.1e-4 -3.20425,0.19476 -4.92923,0.30673 0,44.14755 0,87.859 0,132.05812 35.66641,0 70.96005,0 107.21243,3e-5 z"
   id="path16" />
<path
   fill="#151515"
   opacity="1"
   stroke="none"
   d="m 261.2317,42.039397 c 3.9368,28.469002 -9.58895,53.02986 -34.17085,62.778623 -7.60748,3.017 -15.53381,4.20855 -23.53175,2.93798 -17.11206,-2.71845 -32.43949,0.36719 -45.4209,12.42651 -0.32208,0.2992 -0.8586,0.36758 -1.77493,0.7371 -0.11592,-1.47493 -0.29546,-2.70034 -0.29627,-3.92586 -0.0164,-24.995273 -0.16284,-49.992408 0.14318,-74.983947 0.0482,-3.940998 1.5503,-8.178822 3.42169,-11.730648 C 169.97058,10.599799 186.49692,-0.07001127 208.72198,3.4573336e-4 231.09984,0.07118673 247.69119,10.994428 258.29118,30.623428 c 1.74338,3.228385 1.92914,7.297935 2.94052,11.415969 m -7.15402,24.613579 c 2.77753,-11.394806 3.87619,-23.139419 -1.32144,-33.77845 -14.02843,-28.7149503 -51.94838,-36.1447183 -76.03778,-15.193132 -9.44122,8.211447 -15.58882,17.983587 -14.97644,31.634077 0.82071,18.294292 0.20343,36.653087 0.20354,54.984189 1e-5,1.56557 -2e-5,3.13114 -2e-5,5.61244 12.49813,-8.57605 25.64282,-10.476283 39.06854,-8.17659 25.77045,4.41423 47.85938,-14.626601 53.0636,-35.082534 z"
   id="path18" />
<path
   fill="#0c0c0c"
   opacity="1"
   stroke="none"
   d="m 855.96333,438.08735 c 0.088,5.13986 -3.29065,2.67239 -4.89422,3.17246 0,-7.57813 -0.13404,-15.01844 0.0381,-22.4516 0.16895,-7.29923 0.64905,-14.59122 0.98816,-21.79129 4.50013,-1.72013 6.45886,0.12179 7.85712,4.08981 3.01495,8.55572 6.4339,16.96906 10.17486,26.70962 3.72846,-9.70282 7.12964,-18.16427 10.20527,-26.74243 1.30304,-3.63409 2.98138,-5.80795 7.89746,-4.01632 0.27197,7.00741 0.53692,14.41839 0.85376,21.82714 0.31219,7.30011 0.67706,14.59797 1.03308,22.20157 -2.00122,0 -3.69794,0 -6.29865,0 0,-10.57797 0,-20.99066 0,-31.40335 -0.47876,-0.071 -0.95746,-0.14197 -1.43622,-0.21292 -3.1474,8.24124 -6.29473,16.48248 -9.46331,24.77918 -1.81012,0 -3.45612,0 -5.62171,0 -3.07855,-8.07288 -6.22998,-16.33689 -9.38141,-24.60093 -0.31091,0.0189 -0.62176,0.0378 -0.93267,0.0567 -0.33564,9.30493 -0.67127,18.60989 -1.0196,28.38235 z"
   id="path20" />
<path
   fill="#0f0f0f"
   opacity="1"
   stroke="none"
   d="m 810.23732,436.17256 c 0,-13.28479 0,-26.08805 0,-40.01011 7.60278,0.39606 14.96753,0.67847 22.30908,1.25626 1.30689,0.10284 2.79724,1.18417 3.72614,2.23511 5.43817,6.15228 3.09186,19.87347 -4.25861,24.17697 3.42267,5.57727 6.84589,11.15546 10.43634,17.00619 -3.83789,1.25437 -6.46045,0.67609 -8.22845,-2.9309 -1.23737,-2.52414 -2.85511,-4.86426 -4.33661,-7.26581 -4.42676,-7.17569 -4.43329,-7.17166 -13.74701,-6.21814 0,5.39996 0,10.84329 0,16.62277 -2.01245,0 -3.71478,0 -5.70197,0 -0.0667,-1.47287 -0.13281,-2.93185 -0.19891,-4.87234 m 8.52484,-17.00824 c 1.99628,0 3.99268,0.0181 5.98871,-0.003 7.00238,-0.0754 8.40985,-1.49426 8.49262,-8.52573 0.094,-7.98578 -1.10505,-9.19207 -9.17286,-9.21283 -2.60559,-0.007 -5.21124,-10e-4 -8.06256,-10e-4 0,5.35293 -0.0971,10.15622 0.0824,14.94912 0.0356,0.9495 1.13312,1.85926 2.67169,2.7938 z"
   id="path22" />
<path
   fill="#0c0c0c"
   opacity="1"
   stroke="none"
   d="m 789.01179,396.3415 c 6.96412,1.10648 10.39069,5.52487 10.89655,11.60452 0.60327,7.25138 0.72211,14.6442 0.0242,21.87671 -0.83899,8.69367 -6.47284,12.52561 -16.29663,12.35401 -9.49371,-0.16584 -14.57153,-4.12839 -15.52057,-12.73743 -0.58154,-5.27512 -0.88568,-10.65704 -0.55011,-15.94247 0.93036,-14.65052 6.41913,-18.97181 21.44659,-17.15534 m -15.61926,31.74429 c 0.76184,7.89493 5.37323,9.32065 11.71063,9.12037 6.60737,-0.20878 9.47962,-3.14673 9.73359,-10.66205 0.2127,-6.29273 -0.003,-12.65351 -0.71271,-18.9065 -0.54932,-4.83838 -4.03607,-6.87909 -9.87903,-6.95269 -6.00812,-0.0757 -9.70135,2.07971 -10.24591,7.11975 -0.69379,6.42163 -0.52307,12.93667 -0.60657,20.28112 z"
   id="path24" />
<path
   fill="#0f0f0f"
   opacity="1"
   stroke="none"
   d="m 668.01119,405.18311 c 0.73077,-2.08303 1.63537,-3.73761 1.9508,-5.4978 0.49042,-2.73681 2.08551,-3.86297 4.49683,-3.11285 1.54925,0.48202 3.56341,1.65954 4.057,3.00625 5.00391,13.65296 9.73731,27.40509 14.60267,41.28971 -4.13264,1.41049 -6.18586,0.38867 -7.42005,-4.01154 -2.24994,-8.02142 -2.55817,-7.93493 -10.08935,-7.93503 -10.32959,-9e-5 -10.32514,10e-4 -13.60767,9.85715 -0.25983,0.77994 -0.64111,1.51941 -1.02948,2.42609 -1.62042,0 -3.22858,0 -5.47833,0 4.21051,-12.0755 8.31891,-23.85819 12.51758,-36.02198 m 5.26434,-1.01498 c -2.12622,6.58945 -4.2525,13.17889 -6.45093,19.99204 5.02246,0 9.59149,0 15.12476,0 -2.86621,-7.20273 -5.53351,-13.90571 -8.67383,-19.99204 z"
   id="path26" />
<path
   fill="#111111"
   opacity="1"
   stroke="none"
   d="m 446.10304,396.46745 c 4.46201,0.20294 8.45267,0.25076 12.40711,0.65381 3.72113,0.37927 6.26999,2.66458 6.68853,6.33361 0.50245,4.404 0.81229,8.93268 0.34842,13.31666 -0.51022,4.8226 -3.66201,7.74148 -8.74969,7.87182 -4.44485,0.11389 -8.89496,0.0238 -13.78012,0.0238 0,5.8971 0,11.15275 0,16.55646 -2.05002,0 -3.65595,0 -5.52304,0 0,-14.73065 0,-29.31924 0,-44.75613 2.64895,0 5.38528,0 8.60879,0 m 13.13135,7.50869 c -4.76874,-4.72946 -10.55859,-1.5917 -16.22409,-2.71099 0,3.59253 0,6.53976 0,9.48703 0,3.05862 0,6.11724 0,9.10592 17.2247,0.91547 18.97909,-0.76202 16.22409,-15.88196 z"
   id="path28" />
<path
   fill="#111111"
   opacity="1"
   stroke="none"
   d="m 595.99434,440.01887 c -1.67255,0.87726 -3.32214,1.28494 -5.42432,1.80444 0,-15.3309 0,-30.03244 0,-44.91012 6.81342,0 13.56867,-0.19763 20.30536,0.0705 4.38086,0.17438 7.14209,3.05249 7.60541,7.26236 0.46698,4.24271 0.50806,8.62918 -0.0197,12.85843 -0.57953,4.64475 -3.67786,7.37406 -8.51856,7.51419 -4.46557,0.12934 -8.9378,0.0276 -13.92529,0.0276 0,5.33386 0,10.11844 -0.0229,15.37262 m 16.24005,-36.04269 c -4.76874,-4.72956 -10.55859,-1.59168 -16.224,-2.71106 0,3.58914 -6e-5,6.53811 -6e-5,9.48709 0,3.05862 6e-5,6.11721 6e-5,9.10589 17.22467,0.91544 18.97901,-0.76196 16.224,-15.88192 z"
   id="path30" />
<path
   fill="#0c0c0c"
   opacity="1"
   stroke="none"
   d="m 551.1606,421.128 c -1.8078,-0.54449 -3.24603,-0.94257 -4.65527,-1.42529 -7.25367,-2.48474 -9.16822,-5.46445 -8.42682,-13.05384 0.63452,-6.4956 4.05224,-9.95333 11.08087,-10.45614 4.89844,-0.35037 9.84222,-0.0675 15.22912,-0.0675 -0.22363,2.8292 -0.34582,4.37503 -0.39941,5.05271 -5.28546,0 -10.26917,-0.47888 -15.07379,0.23953 -1.87921,0.28101 -4.16565,2.99216 -4.8244,5.0567 -0.95563,2.99454 -0.57294,6.48587 3.2442,7.87006 3.41992,1.2402 6.97149,2.11349 10.40948,3.30841 6.12348,2.12836 8.57386,6.06253 8.05268,12.64191 -0.5387,6.80032 -3.25824,10.50628 -9.71869,11.22607 -5.82117,0.64856 -11.77155,0.13684 -18.18994,0.13684 0.30267,-2.94714 0.4627,-4.50531 0.6112,-5.95093 4.52039,0.57849 8.60169,1.45307 12.69739,1.52597 4.10211,0.073 8.12036,-0.81704 8.82489,-6.05423 0.67517,-5.0187 -1.11633,-7.60348 -6.5451,-9.48416 -0.62269,-0.2157 -1.28791,-0.30881 -2.31641,-0.56613 z"
   id="path32" />
<path
   fill="#0c0c0c"
   opacity="1"
   stroke="none"
   d="m 401.25145,417.43849 c 0.45526,-18.9086 5.15601,-23.025 23.56894,-21.08472 1.30356,0.13739 2.59146,0.42322 3.96109,0.65253 0,1.64077 0,3.05789 0,4.04388 -4.8685,0 -9.46576,-0.18558 -14.04044,0.0563 -3.96524,0.20962 -6.63321,2.5104 -6.81381,6.56085 -0.32416,7.26986 -0.47562,14.56195 -0.29501,21.83471 0.12372,4.98194 3.42697,7.47406 8.17663,7.60306 4.12458,0.112 8.26456,-0.34207 12.84952,-0.5683 0.1431,1.17484 0.31128,2.55551 0.47818,3.9256 -0.68399,0.354 -1.10263,0.7544 -1.52981,0.76373 -5.11493,0.11194 -10.28635,0.66468 -15.33283,0.10642 -6.06586,-0.67111 -9.37512,-4.36771 -10.1871,-10.4996 -0.5651,-4.26734 -0.57773,-8.60782 -0.83536,-13.39441 z"
   id="path34" />
<path
   fill="#090909"
   opacity="1"
   stroke="none"
   d="m 472.65077,434.84004 c 0.0461,-8.73716 2.18512,-11.10782 10.30872,-11.62329 2.63479,-0.16718 5.28912,-0.0263 7.81424,-0.0263 2.20089,-7.56744 0.3728,-10.10132 -6.88156,-9.78232 -2.79371,0.12287 -5.56748,0.7002 -8.4697,1.08634 -1.74927,-3.03507 -0.79288,-4.60776 2.47656,-5.0467 1.48029,-0.19873 2.96323,-0.3955 4.4512,-0.51577 10.84543,-0.87619 15.5463,2.30636 14.80195,12.91757 -0.43973,6.2684 -0.0804,12.59283 -0.0804,19.99332 -1.9671,-0.70029 -3.47482,-1.39795 -5.05938,-1.74335 -1.02091,-0.22254 -2.15543,0.059 -3.23743,0.1373 -4.01523,0.29043 -8.11847,1.18234 -12.00183,0.6007 -1.59506,-0.23889 -2.71555,-3.64636 -4.12238,-5.99755 m 5.43469,-3.62134 c 0.75388,2.0022 1.52277,5.71881 2.25907,5.71234 3.33835,-0.0291 7.10751,-0.39923 9.82873,-2.08661 1.53916,-0.95441 1.35123,-4.69415 1.97312,-7.31399 -10.01911,-0.67356 -10.78473,-0.49732 -14.06092,3.68826 z"
   id="path36" />
<path
   fill="#090909"
   opacity="1"
   stroke="none"
   d="m 510.01924,424.03178 c 4.62213,-0.56931 8.87036,-0.98798 13.09351,-1.40418 1.4187,-7.59243 -0.18854,-9.60479 -7.55597,-9.21795 -2.78052,0.14602 -5.53937,0.70404 -8.25836,1.06759 -1.66053,-3.41595 -0.23517,-4.76342 2.93072,-5.07193 1.81671,-0.17703 3.62305,-0.54116 5.44153,-0.60397 8.77844,-0.30331 14.12006,1.93341 13.4715,12.37854 -0.39038,6.28711 -0.0803,12.61749 -0.10486,18.92831 -0.001,0.30671 -0.19434,0.61264 -0.58325,1.76072 -1.5409,-0.72031 -3.0022,-1.54529 -4.56421,-2.07129 -0.73682,-0.24814 -1.70252,-0.052 -2.5022,0.16855 -1.90662,0.52597 -3.73889,1.37585 -5.66791,1.75576 -5.31549,1.04694 -9.30621,-0.84643 -10.66101,-4.85775 -1.72845,-5.11759 0.0499,-10.03476 4.96051,-12.8324 m 13.64679,4.05096 c -3.54266,-0.0724 -7.19592,-0.66952 -10.57312,0.0427 -1.33874,0.28235 -2.62762,3.40567 -2.85754,5.36261 -0.13733,1.16931 1.59063,3.37738 2.87878,3.75369 5.81531,1.69888 10.63666,-2.24283 10.55188,-9.15903 z"
   id="path38" />
<path
   fill="#111111"
   opacity="1"
   stroke="none"
   d="m 735.23329,400.6211 c 0.84467,-1.69769 1.64984,-3.95376 2.5401,-3.98788 7.44916,-0.28525 14.91394,-0.1622 22.67865,-0.1622 0,1.75879 0,3.13129 0,4.86862 -6.40344,0 -12.67059,0 -19.1792,0 0,5.08084 0,9.80609 0,14.98105 5.83045,0 11.58295,0 17.49866,0 0,1.71817 0,2.99173 0,4.75281 -5.74451,0 -11.49176,0 -17.61652,0 0,6.88333 0,13.30407 0,20.01528 -2.0896,0 -3.79248,0 -5.92175,0 0,-13.4302 0,-26.71316 6e-5,-40.46768 z"
   id="path40" />
<path
   fill="#050505"
   opacity="1"
   stroke="none"
   d="m 709.69301,419.3578 c 0,-6.14136 0,-11.78293 0,-17.80512 -4.29169,0 -8.37854,0 -12.7807,0 0,-1.76309 0,-3.14734 0,-4.7951 10.32739,0 20.53345,0 31.02234,0 0,1.46951 0,2.84549 0,4.557 -4.16095,0 -8.25751,0 -12.71082,0 0,13.35993 0,26.40861 0,39.75251 -1.90039,0 -3.44769,0 -5.53082,0 0,-7.03284 0,-14.12116 0,-21.70929 z"
   id="path42" />
<path
   fill="#111111"
   opacity="1"
   stroke="none"
   d="m 627.23323,402.54249 c 0,-2.11383 0,-3.75348 0,-5.75479 1.8952,-0.14264 3.47711,-0.26172 5.53357,-0.41654 0,13.30182 0,26.36051 0,39.88202 6.50244,0 12.56457,0 18.97406,0 0.10693,1.83078 0.18799,3.2183 0.28522,4.88294 -8.20081,0 -16.13916,0 -24.79285,0 0,-12.64987 0,-25.38462 0,-38.59363 z"
   id="path44" />





<path
   fill="#f7f7f7"
   opacity="1"
   stroke="none"
   d="m 254.01018,67.059425 c -5.13672,20.049484 -27.22565,39.090315 -52.9961,34.676085 -13.42572,-2.299693 -26.57041,-0.39946 -39.06854,8.17659 0,-2.4813 3e-5,-4.04687 2e-5,-5.61244 -1.1e-4,-18.331102 0.61717,-36.689897 -0.20354,-54.984189 -0.61238,-13.65049 5.53522,-23.42263 14.97644,-31.634077 24.0894,-20.9515863 62.00935,-13.5218183 76.03778,15.193132 5.19763,10.639031 4.09897,22.383644 1.25394,34.184899 m -35.50554,17.367744 c 16.8358,-4.603394 23.57216,-15.133621 21.68916,-33.904541 -2.55786,-25.4986 -30.5195,-39.060257 -51.8595,-24.930561 -8.5391,5.653927 -14.17973,13.108051 -13.5055,24.394585 0.61416,10.280941 0.11934,20.627483 0.14369,30.945041 0.003,1.431305 0.18088,2.862198 0.27733,4.286667 14.4837,3.297043 28.475,2.269074 43.25482,-0.791191 z"
   id="path56" />







<path
   fill="#3cafdf"
   opacity="1"
   stroke="none"
   d="m 719.05452,266.17915 c -12.77759,-1.6e-4 -25.05512,-1.6e-4 -38.06946,-1.6e-4 0,-5.29153 -1.8e-4,-10.04803 6e-5,-14.80453 4.3e-4,-8.65494 0.13514,-17.31279 -0.0543,-25.96358 -0.0961,-4.38705 1.33661,-6.29492 6.02094,-6.27046 27.62848,0.14427 55.25824,0.11368 82.8872,0.0276 4.19599,-0.0131 6.06373,1.49748 6.0127,5.84865 -0.1427,12.14853 -0.1814,24.30211 0.0287,36.44868 0.0658,3.79953 -1.24354,4.81796 -4.89612,4.78421 -17.14197,-0.15832 -34.28626,-0.0703 -51.92969,-0.0704 M 686.95024,250.8145 c 0,2.94455 0,5.8891 0,9.09336 27.67059,0 54.72687,0 82.01361,0 0,-11.64878 0,-22.98854 0,-34.32735 -27.48694,0 -54.54486,0 -82.01379,0 0,8.31572 0,16.28174 1.8e-4,25.23399 z"
   id="path72" />
<path
   fill="#38addf"
   opacity="1"
   stroke="none"
   d="m 518.07753,286.35792 c 0,-20.3273 -0.0104,-40.1546 0.006,-59.98187 0.005,-6.47069 0.70142,-7.15216 7.19208,-7.15425 26.99176,-0.009 53.98352,-0.0108 80.97528,0.002 5.74341,0.003 6.79419,0.9557 6.80206,6.57989 0.0375,26.6585 0.0369,53.3171 10e-4,79.97557 -0.008,5.84009 -1.24572,7.20441 -6.9804,7.21872 -26.82496,0.067 -53.6504,0.0793 -80.47522,-0.008 -6.55628,-0.0214 -7.49457,-1.17045 -7.51642,-7.63745 -0.0208,-6.16474 -0.005,-12.32963 -0.005,-18.99439 m 21.47968,20.38718 c 20.64105,-7e-5 41.28332,-0.11722 61.92218,0.0953 4.30267,0.0443 5.71167,-1.00183 5.66888,-5.51382 -0.22455,-23.63519 -0.10028,-47.27362 -0.11536,-70.91095 -9.7e-4,-1.59931 -0.15118,-3.1985 -0.2395,-4.94553 -27.75995,0 -54.98376,0 -82.44012,0 0,27.1131 0,53.97306 0,81.27561 4.9411,0 9.57306,0 15.20392,-6.1e-4 z"
   id="path74" />
<path
   fill="#141414"
   opacity="1"
   stroke="none"
   d="m 218.09657,84.501945 c -14.37175,2.985489 -28.36305,4.013458 -42.84675,0.716415 -0.0965,-1.424469 -0.27394,-2.855362 -0.27733,-4.286667 -0.0243,-10.317558 0.47047,-20.6641 -0.14369,-30.945041 -0.67423,-11.286534 4.9664,-18.740658 13.5055,-24.394585 21.34,-14.129696 49.30164,-0.568039 51.8595,24.930561 1.883,18.77092 -4.85336,29.301147 -22.09723,33.979317 M 199.48065,26.66384 c -1.24754,0.465813 -2.55961,0.807587 -3.73208,1.417679 -7.32404,3.811047 -14.06151,8.733471 -14.75092,17.499722 -0.8205,10.432911 -0.30847,20.982349 -0.0529,31.473476 0.0324,1.329613 1.88848,3.621788 3.09612,3.760735 12.7122,1.462745 25.29698,0.569755 37.5021,-3.470864 5.49796,-1.820144 9.642,-5.658966 11.41655,-11.138359 3.49836,-10.802093 2.25003,-21.24382 -4.98903,-30.196178 -7.07609,-8.750824 -16.4611,-12.071671 -28.48982,-9.346211 z"
   id="path76" />



</svg>
