<?xml version="1.0" encoding="UTF-8" standalone="no"?>
<!-- Generator: Adobe Illustrator 19.0.0, SVG Export Plug-In . SVG Version: 6.00 Build 0)  -->

<svg
   version="1.1"
   id="Layer_1"
   x="0px"
   y="0px"
   viewBox="0 0 497.42999 497.42999"
   xml:space="preserve"
   sodipodi:docname="Brazil.svg"
   width="497.42999"
   height="497.42999"
   inkscape:version="1.1.2 (0a00cf5339, 2022-02-04, custom)"
   xmlns:inkscape="http://www.inkscape.org/namespaces/inkscape"
   xmlns:sodipodi="http://sodipodi.sourceforge.net/DTD/sodipodi-0.dtd"
   xmlns="http://www.w3.org/2000/svg"
   xmlns:svg="http://www.w3.org/2000/svg"><defs
   id="defs49" /><sodipodi:namedview
   id="namedview47"
   pagecolor="#505050"
   bordercolor="#eeeeee"
   borderopacity="1"
   inkscape:pageshadow="0"
   inkscape:pageopacity="0"
   inkscape:pagecheckerboard="0"
   showgrid="false"
   inkscape:zoom="0.96679687"
   inkscape:cx="266.86061"
   inkscape:cy="256"
   inkscape:window-width="1366"
   inkscape:window-height="746"
   inkscape:window-x="1366"
   inkscape:window-y="22"
   inkscape:window-maximized="1"
   inkscape:current-layer="Layer_1" />
<rect
   x="0"
   y="0"
   style="fill:#259245"
   width="497.42999"
   height="497.42999"
   id="rect2" />

<polygon
   style="fill:#ffe000"
   points="256,137.19 460.498,256 256,374.81 51.502,256 "
   id="polygon6"
   transform="translate(-7.2859998,-7.2859998)" />
<path
   d="m 248.714,374.811 c -1.265,0 -2.528,-0.328 -3.66,-0.986 L 40.556,255.015 c -2.245,-1.305 -3.626,-3.705 -3.626,-6.301 0,-2.596 1.382,-4.996 3.626,-6.301 l 204.498,-118.81 c 2.264,-1.315 5.057,-1.315 7.321,0 l 204.498,118.81 c 2.245,1.305 3.626,3.705 3.626,6.301 0,2.596 -1.382,4.996 -3.626,6.301 l -32.303,18.767 c -3.48,2.02 -7.939,0.841 -9.961,-2.64 -2.021,-3.479 -0.84,-7.939 2.64,-9.961 L 438.707,248.714 248.714,138.331 58.721,248.714 248.714,359.097 388.575,277.839 c 3.478,-2.021 7.938,-0.841 9.961,2.64 2.021,3.479 0.84,7.939 -2.64,9.961 l -143.522,83.385 c -1.132,0.657 -2.395,0.986 -3.66,0.986 z"
   id="path8" />
<circle
   style="fill:#103b9b"
   cx="248.714"
   cy="248.714"
   r="67.470001"
   id="circle10" />
<path
   style="fill:#ffffff"
   d="m 308.979,286.491 c -2.7,0 -5.294,-1.507 -6.556,-4.097 -10.094,-20.712 -27.403,-36.941 -48.741,-45.697 -21.334,-8.755 -45.052,-9.367 -66.782,-1.72 -3.794,1.333 -7.956,-0.66 -9.292,-4.455 -1.335,-3.796 0.66,-7.956 4.455,-9.292 25.106,-8.835 52.506,-8.129 77.152,1.986 24.649,10.116 44.646,28.865 56.308,52.796 1.763,3.617 0.259,7.979 -3.359,9.742 -1.027,0.5 -2.114,0.737 -3.185,0.737 z"
   id="path12" />
<path
   d="m 248.714,323.467 c -41.219,0 -74.753,-33.534 -74.753,-74.753 0,-41.219 33.534,-74.753 74.753,-74.753 41.219,0 74.753,33.534 74.753,74.753 0,41.219 -33.534,74.753 -74.753,74.753 z m 0,-134.933 c -33.183,0 -60.18,26.997 -60.18,60.18 0,33.183 26.997,60.18 60.18,60.18 33.183,0 60.18,-26.997 60.18,-60.18 0,-33.183 -26.997,-60.18 -60.18,-60.18 z"
   id="path14" />
<g
   id="g16"
   transform="translate(-7.2859998,-7.2859998)">
</g>
<g
   id="g18"
   transform="translate(-7.2859998,-7.2859998)">
</g>
<g
   id="g20"
   transform="translate(-7.2859998,-7.2859998)">
</g>
<g
   id="g22"
   transform="translate(-7.2859998,-7.2859998)">
</g>
<g
   id="g24"
   transform="translate(-7.2859998,-7.2859998)">
</g>
<g
   id="g26"
   transform="translate(-7.2859998,-7.2859998)">
</g>
<g
   id="g28"
   transform="translate(-7.2859998,-7.2859998)">
</g>
<g
   id="g30"
   transform="translate(-7.2859998,-7.2859998)">
</g>
<g
   id="g32"
   transform="translate(-7.2859998,-7.2859998)">
</g>
<g
   id="g34"
   transform="translate(-7.2859998,-7.2859998)">
</g>
<g
   id="g36"
   transform="translate(-7.2859998,-7.2859998)">
</g>
<g
   id="g38"
   transform="translate(-7.2859998,-7.2859998)">
</g>
<g
   id="g40"
   transform="translate(-7.2859998,-7.2859998)">
</g>
<g
   id="g42"
   transform="translate(-7.2859998,-7.2859998)">
</g>
<g
   id="g44"
   transform="translate(-7.2859998,-7.2859998)">
</g>
</svg>
