<?xml version="1.0" encoding="UTF-8" standalone="no"?>
<svg
   fill="#000000"
   viewBox="0 0 24 24"
   width="24px"
   height="24px"
   version="1.1"
   id="svg4"
   sodipodi:docname="light-mode.svg"
   inkscape:version="1.1.2 (0a00cf5339, 2022-02-04, custom)"
   xmlns:inkscape="http://www.inkscape.org/namespaces/inkscape"
   xmlns:sodipodi="http://sodipodi.sourceforge.net/DTD/sodipodi-0.dtd"
   xmlns="http://www.w3.org/2000/svg"
   xmlns:svg="http://www.w3.org/2000/svg">
  <defs
     id="defs8" />
  <sodipodi:namedview
     id="namedview6"
     pagecolor="#505050"
     bordercolor="#eeeeee"
     borderopacity="1"
     inkscape:pageshadow="0"
     inkscape:pageopacity="0"
     inkscape:pagecheckerboard="0"
     showgrid="false"
     inkscape:zoom="20.625"
     inkscape:cx="11.490909"
     inkscape:cy="12.630303"
     inkscape:window-width="1366"
     inkscape:window-height="746"
     inkscape:window-x="1366"
     inkscape:window-y="22"
     inkscape:window-maximized="1"
     inkscape:current-layer="svg4" />
  <path
     d="m 11,0 v 3 h 2 V 0 Z M 4.2226562,2.8085938 2.8085938,4.2226562 4.9296875,6.34375 6.34375,4.9296875 Z m 15.5546878,0 L 17.65625,4.9296875 19.070312,6.34375 21.191406,4.2226562 Z M 12,5 c -3.8541486,0 -7,3.1458514 -7,7 0,3.854149 3.1458514,7 7,7 3.854149,0 7,-3.145851 7,-7 C 19,8.1458514 15.854149,5 12,5 Z M 0,11 v 2 h 3 v -2 z m 21,0 v 2 h 3 V 11 Z M 4.9296875,17.65625 2.8085938,19.777344 4.2226562,21.191406 6.34375,19.070312 Z m 14.1406245,0 -1.414062,1.414062 2.121094,2.121094 1.414062,-1.414062 z M 11,21 v 3 h 2 v -3 z"
     id="path2"
     sodipodi:nodetypes="cccccccccccccccsssssccccccccccccccccccccccccc"
     style="fill:#000000;fill-opacity:1" />
</svg>
