<?xml version="1.0" encoding="UTF-8" standalone="no"?>
<!-- Generator: Adobe Illustrator 17.0.0, SVG Export Plug-In . SVG Version: 6.00 Build 0)  -->

<svg
   version="1.1"
   id="Layer_1"
   x="0px"
   y="0px"
   width="97.440002"
   height="97.441002"
   viewBox="0 0 97.44 97.441"
   enable-background="new 0 0 421.191 97.441"
   xml:space="preserve"
   sodipodi:docname="telecall-icone.svg"
   inkscape:version="1.1.2 (0a00cf5339, 2022-02-04, custom)"
   xmlns:inkscape="http://www.inkscape.org/namespaces/inkscape"
   xmlns:sodipodi="http://sodipodi.sourceforge.net/DTD/sodipodi-0.dtd"
   xmlns:xlink="http://www.w3.org/1999/xlink"
   xmlns="http://www.w3.org/2000/svg"
   xmlns:svg="http://www.w3.org/2000/svg"><defs
   id="defs160" /><sodipodi:namedview
   id="namedview158"
   pagecolor="#505050"
   bordercolor="#eeeeee"
   borderopacity="1"
   inkscape:pageshadow="0"
   inkscape:pageopacity="0"
   inkscape:pagecheckerboard="0"
   showgrid="false"
   inkscape:lockguides="false"
   inkscape:zoom="1.3687377"
   inkscape:cx="199.81915"
   inkscape:cy="-19.360905"
   inkscape:window-width="1366"
   inkscape:window-height="746"
   inkscape:window-x="0"
   inkscape:window-y="22"
   inkscape:window-maximized="1"
   inkscape:current-layer="g125" />
<g
   id="g125">
	
	
	
	
	
	
	
	
	<g
   id="g41">
		<g
   id="g39">
			<defs
   id="defs19">
				<rect
   id="SVGID_1_"
   x="2.632"
   y="0.13600001"
   width="70.848"
   height="95.718002" />
			</defs>
			<clipPath
   id="SVGID_2_">
				<use
   xlink:href="#SVGID_1_"
   overflow="visible"
   id="use21"
   x="0"
   y="0"
   width="100%"
   height="100%" />
			</clipPath>
			<g
   clip-path="url(#SVGID_2_)"
   id="g37">
				<defs
   id="defs25">
					<path
   id="SVGID_3_"
   d="M 45.081,0.135 C 25.313,1.594 8.827,14.85 2.632,32.891 5.419,60.8 18.284,73.664 30.747,82.242 43.209,90.818 73.48,95.853 73.48,95.853 68.749,94.966 50.787,90.343 39.151,77.746 35.159,73.421 32.312,68.74 30.349,64.07 c 0.001,0.004 0.002,0.008 0.002,0.008 0,0 -10e-4,-0.004 -0.002,-0.008 C 29.272,61.515 28.463,58.962 27.874,56.474 26.368,50.908 24.688,42.626 24.449,32.79 24.023,15.368 33.871,3.059 45.081,0.135" />
				</defs>
				<clipPath
   id="SVGID_4_">
					<use
   xlink:href="#SVGID_3_"
   overflow="visible"
   id="use27"
   x="0"
   y="0"
   width="100%"
   height="100%" />
				</clipPath>
				
					<linearGradient
   id="SVGID_5_"
   gradientUnits="userSpaceOnUse"
   x1="-5.8929"
   y1="101.902"
   x2="-4.8929"
   y2="101.902"
   gradientTransform="matrix(3.1958,-46.2242,-46.2242,-3.1958,4765.8696,120.8962)">
					<stop
   offset="0"
   style="stop-color:#6F0413"
   id="stop30" />
					<stop
   offset="1"
   style="stop-color:#C70725"
   id="stop32" />
				</linearGradient>
				<polygon
   clip-path="url(#SVGID_4_)"
   fill="url(#SVGID_5_)"
   points="80.066,0.591 73.143,100.728 -3.954,95.398 2.969,-4.74 "
   id="polygon35"
   style="fill:url(#SVGID_5_)" />
			</g>
		</g>
	</g>
	<g
   id="g66">
		<g
   id="g64">
			<defs
   id="defs44">
				<rect
   id="SVGID_6_"
   x="0"
   y="32.891998"
   width="74.272003"
   height="64.550003" />
			</defs>
			<clipPath
   id="SVGID_7_">
				<use
   xlink:href="#SVGID_6_"
   overflow="visible"
   id="use46"
   x="0"
   y="0"
   width="100%"
   height="100%" />
			</clipPath>
			<g
   clip-path="url(#SVGID_7_)"
   id="g62">
				<defs
   id="defs50">
					<path
   id="SVGID_8_"
   d="M 2.632,32.891 C 0.927,37.853 0,43.179 0,48.72 0,75.628 21.813,97.441 48.719,97.441 H 73.48 c 0.812,0 1.275,-1.35 0,-1.588 0,0 -30.271,-5.035 -42.733,-13.611 C 18.284,73.664 5.419,60.8 2.632,32.891" />
				</defs>
				<clipPath
   id="SVGID_9_">
					<use
   xlink:href="#SVGID_8_"
   overflow="visible"
   id="use52"
   x="0"
   y="0"
   width="100%"
   height="100%" />
				</clipPath>
				
					<linearGradient
   id="SVGID_10_"
   gradientUnits="userSpaceOnUse"
   x1="-5.7428002"
   y1="101.8195"
   x2="-4.7428002"
   y2="101.8195"
   gradientTransform="matrix(4.8887,-21.8468,-21.8468,-4.8887,2282.7307,469.4255)">
					<stop
   offset="0"
   style="stop-color:#850419"
   id="stop55" />
					<stop
   offset="1"
   style="stop-color:#C70725"
   id="stop57" />
				</linearGradient>
				<polygon
   clip-path="url(#SVGID_9_)"
   fill="url(#SVGID_10_)"
   points="88.511,35.97 71.19,113.372 -13.756,94.363 3.565,16.961 "
   id="polygon60"
   style="fill:url(#SVGID_10_)" />
			</g>
		</g>
	</g>
	<g
   id="g91">
		<g
   id="g89">
			<defs
   id="defs69">
				<rect
   id="SVGID_11_"
   x="24.434999"
   y="0"
   width="72.572998"
   height="56.474998" />
			</defs>
			<clipPath
   id="SVGID_12_">
				<use
   xlink:href="#SVGID_11_"
   overflow="visible"
   id="use71"
   x="0"
   y="0"
   width="100%"
   height="100%" />
			</clipPath>
			<g
   clip-path="url(#SVGID_12_)"
   id="g87">
				<defs
   id="defs75">
					<path
   id="SVGID_13_"
   d="M 68.137,20.237 C 91.65,23.497 96.865,41.711 97.008,42.23 93.835,18.391 73.427,0 48.719,0 47.496,0 46.283,0.046 45.081,0.135 33.871,3.059 24.023,15.368 24.449,32.79 c 0.239,9.836 1.919,18.118 3.425,23.684 -1.787,-7.548 -1.532,-14.495 -0.438,-19.133 1.918,-8.136 5.439,-11.82 9.45,-14.446 2.656,-1.74 4.85,-2.532 6.6,-2.81 0.214,-0.036 10.906,-1.753 24.651,0.152" />
				</defs>
				<clipPath
   id="SVGID_14_">
					<use
   xlink:href="#SVGID_13_"
   overflow="visible"
   id="use77"
   x="0"
   y="0"
   width="100%"
   height="100%" />
				</clipPath>
				
					<linearGradient
   id="SVGID_15_"
   gradientUnits="userSpaceOnUse"
   x1="-5.9173002"
   y1="102.0628"
   x2="-4.9173002"
   y2="102.0628"
   gradientTransform="matrix(72.5729,0,0,-72.5729,453.8729,7435.2324)">
					<stop
   offset="0"
   style="stop-color:#720414"
   id="stop80" />
					<stop
   offset="1"
   style="stop-color:#C50725"
   id="stop82" />
				</linearGradient>
				<rect
   x="24.023001"
   y="0"
   clip-path="url(#SVGID_14_)"
   fill="url(#SVGID_15_)"
   width="72.985001"
   height="56.473999"
   id="rect85"
   style="fill:url(#SVGID_15_)" />
			</g>
		</g>
	</g>
	<g
   id="g123">
		<g
   id="g121">
			<defs
   id="defs94">
				<rect
   id="SVGID_16_"
   x="43.486"
   y="19.341"
   width="53.953999"
   height="61.659" />
			</defs>
			<clipPath
   id="SVGID_17_">
				<use
   xlink:href="#SVGID_16_"
   overflow="visible"
   id="use96"
   x="0"
   y="0"
   width="100%"
   height="100%" />
			</clipPath>
			<g
   clip-path="url(#SVGID_17_)"
   id="g119">
				<defs
   id="defs100">
					<path
   id="SVGID_18_"
   d="M 97.008,42.23 C 96.865,41.711 91.65,23.497 68.137,20.237 54.392,18.332 43.7,20.049 43.486,20.085 c 1.713,-0.272 3.001,-0.051 3.886,0.263 2.596,0.899 5.286,3.553 8.076,8.242 1.525,2.563 2.972,5.803 3.667,8.886 0.05,0.218 0.095,0.436 0.136,0.652 0.187,0.977 0.297,1.933 0.297,2.838 0,0.945 -0.112,1.836 -0.364,2.642 -0.724,2.312 -3.003,3.876 -5.054,5.113 -3.664,2.209 -5.914,4.849 -5.248,9.657 0.049,0.358 0.119,0.733 0.207,1.114 0.855,3.726 3.384,8.361 5.223,10.51 3.8,4.439 6.449,6.675 10.851,9.062 8.236,4.463 21.958,1.115 27.418,-9.117 3.355,-6.291 4.859,-13.615 4.859,-21.227 0,-2.2 -0.148,-4.366 -0.432,-6.49" />
				</defs>
				<linearGradient
   id="SVGID_19_"
   gradientUnits="userSpaceOnUse"
   x1="43.486"
   y1="50.169899"
   x2="97.440002"
   y2="50.169899">
					<stop
   offset="0"
   style="stop-color:#6F0413"
   id="stop102" />
					<stop
   offset="1"
   style="stop-color:#C70725"
   id="stop104" />
				</linearGradient>
				<use
   xlink:href="#SVGID_18_"
   overflow="visible"
   fill="url(#SVGID_19_)"
   id="use107"
   x="0"
   y="0"
   width="100%"
   height="100%"
   style="fill:url(#SVGID_19_)" />
				<clipPath
   id="SVGID_20_">
					<use
   xlink:href="#SVGID_18_"
   overflow="visible"
   id="use109"
   x="0"
   y="0"
   width="100%"
   height="100%" />
				</clipPath>
				
					<linearGradient
   id="SVGID_21_"
   gradientUnits="userSpaceOnUse"
   x1="-6.0826001"
   y1="102.1021"
   x2="-5.0826001"
   y2="102.1021"
   gradientTransform="matrix(3.3611,50.1105,50.1105,-3.3611,-5027.6152,667.1326)">
					<stop
   offset="0"
   style="stop-color:#6F0413"
   id="stop112" />
					<stop
   offset="1"
   style="stop-color:#C70725"
   id="stop114" />
				</linearGradient>
				<polygon
   clip-path="url(#SVGID_20_)"
   fill="url(#SVGID_21_)"
   points="43.728,87.13 39.133,18.624 97.198,14.73 101.793,83.235 "
   id="polygon117"
   style="fill:url(#SVGID_21_)" />
			</g>
		</g>
	</g>
</g>
<g
   id="g127">
</g>
<g
   id="g129">
</g>
<g
   id="g131">
</g>
<g
   id="g133">
</g>
<g
   id="g135">
</g>
<g
   id="g137">
</g>
<g
   id="g139">
</g>
<g
   id="g141">
</g>
<g
   id="g143">
</g>
<g
   id="g145">
</g>
<g
   id="g147">
</g>
<g
   id="g149">
</g>
<g
   id="g151">
</g>
<g
   id="g153">
</g>
<g
   id="g155">
</g>
</svg>
